<svg width="24" height="24" viewBox="0 0 24 24" fill="none" xmlns="http://www.w3.org/2000/svg">
<path fill-rule="evenodd" clip-rule="evenodd" d="M11.2298 3.75003L11.121 3.74992C10.6084 3.74916 10.1585 3.74848 9.75762 3.90615C9.40709 4.04402 9.09677 4.26768 8.85513 4.55663C8.57878 4.88709 8.43715 5.31412 8.27577 5.80066L8.24147 5.90391L8.1261 6.25003H6.16667H4.5C4.08579 6.25003 3.75 6.58582 3.75 7.00003C3.75 7.41424 4.08579 7.75003 4.5 7.75003H5.465L5.95295 15.0692L5.955 15.1C6.00586 15.863 6.04696 16.4797 6.12022 16.9786C6.19579 17.4933 6.31292 17.9431 6.54831 18.3563C6.92345 19.0148 7.48928 19.5441 8.17126 19.8746C8.59919 20.082 9.0558 20.169 9.57438 20.2101C10.0771 20.25 10.6951 20.25 11.4598 20.25H11.4907H12.5093H12.5402C13.3049 20.25 13.9229 20.25 14.4256 20.2101C14.9442 20.169 15.4008 20.082 15.8287 19.8746C16.5107 19.5441 17.0766 19.0148 17.4517 18.3563C17.6871 17.9431 17.8042 17.4933 17.8798 16.9786C17.953 16.4797 17.9941 15.863 18.045 15.1L18.0471 15.0692L18.535 7.75003H19.5C19.9142 7.75003 20.25 7.41424 20.25 7.00003C20.25 6.58582 19.9142 6.25003 19.5 6.25003H17.8333H15.8739L15.7585 5.90391L15.7242 5.80066C15.5629 5.31412 15.4212 4.88709 15.1449 4.55663C14.9032 4.26768 14.5929 4.04402 14.2424 3.90615C13.8415 3.74848 13.3916 3.74916 12.879 3.74992L12.7702 3.75003H11.2298ZM15.3158 7.75003C15.3274 7.7503 15.339 7.7503 15.3506 7.75003H17.0317L16.5504 14.9694C16.497 15.7705 16.4593 16.3276 16.3957 16.7607C16.3334 17.1847 16.2538 17.4286 16.1483 17.6138C15.9233 18.0089 15.5838 18.3265 15.1746 18.5248C14.9828 18.6177 14.7342 18.6809 14.3069 18.7148C13.8706 18.7495 13.3122 18.75 12.5093 18.75H11.4907C10.6878 18.75 10.1294 18.7495 9.69307 18.7148C9.26585 18.6809 9.01718 18.6177 8.82542 18.5248C8.41623 18.3265 8.07673 18.0089 7.85165 17.6138C7.74617 17.4286 7.66657 17.1847 7.60431 16.7607C7.54072 16.3276 7.50303 15.7705 7.44962 14.9694L6.96833 7.75003H8.64938C8.661 7.7503 8.6726 7.7503 8.68417 7.75003H15.3158ZM14.2926 6.25003C14.1108 5.71015 14.0585 5.59581 13.9942 5.5189C13.9137 5.42258 13.8102 5.34803 13.6934 5.30207C13.5931 5.26263 13.4562 5.25003 12.7702 5.25003H11.2298C10.5438 5.25003 10.4069 5.26263 10.3066 5.30207C10.1898 5.34803 10.0863 5.42258 10.0058 5.5189C9.94148 5.59581 9.88918 5.71015 9.70743 6.25003H14.2926ZM11.0833 10.3334C11.0833 9.91915 10.7475 9.58336 10.3333 9.58336C9.91912 9.58336 9.58333 9.91915 9.58333 10.3334V16.1667C9.58333 16.5809 9.91912 16.9167 10.3333 16.9167C10.7475 16.9167 11.0833 16.5809 11.0833 16.1667V10.3334ZM13.6667 9.58336C14.0809 9.58336 14.4167 9.91915 14.4167 10.3334V13.6667C14.4167 14.0809 14.0809 14.4167 13.6667 14.4167C13.2525 14.4167 12.9167 14.0809 12.9167 13.6667V10.3334C12.9167 9.91915 13.2525 9.58336 13.6667 9.58336Z" fill="#70767B"/>
</svg>
